<svg width="85" height="18" viewBox="0 0 85 18" xmlns="http://www.w3.org/2000/svg"><g id="01-검색-" stroke="none" stroke-width="1" fill="none" fill-rule="evenodd"><g id="Search_PC-case" transform="translate(-1083 -1506)" fill="#F5A623"><g id="star" transform="translate(1083 1484)"><g id="star_full" transform="translate(0 22)"><path d="M8.5 13.055l3.008 1.911a.8.8 0 001.21-.848l-.813-3.668 2.75-2.508a.8.8 0 00-.467-1.388l-3.58-.32-1.366-3.39a.8.8 0 00-1.484 0l-1.365 3.39-3.58.32a.8.8 0 00-.468 1.388l2.75 2.508-.813 3.668a.8.8 0 001.21.848l3.008-1.91zm17 0l3.008 1.911a.8.8 0 001.21-.848l-.813-3.668 2.75-2.508a.8.8 0 00-.467-1.388l-3.58-.32-1.366-3.39a.8.8 0 00-1.484 0l-1.366 3.39-3.58.32a.8.8 0 00-.467 1.388l2.75 2.508-.813 3.668a.8.8 0 001.21.848l3.008-1.91zm17 0l3.008 1.911a.8.8 0 001.21-.848l-.813-3.668 2.75-2.508a.8.8 0 00-.467-1.388l-3.58-.32-1.366-3.39a.8.8 0 00-1.484 0l-1.366 3.39-3.58.32a.8.8 0 00-.467 1.388l2.75 2.508-.813 3.668a.8.8 0 001.21.848l3.008-1.91zm17 0l3.008 1.911a.8.8 0 001.21-.848l-.813-3.668 2.75-2.508a.8.8 0 00-.467-1.388l-3.58-.32-1.366-3.39a.8.8 0 00-1.484 0l-1.366 3.39-3.58.32a.8.8 0 00-.467 1.388l2.75 2.508-.813 3.668a.8.8 0 001.21.848l3.008-1.91zm17 0l3.008 1.911a.8.8 0 001.21-.848l-.813-3.668 2.75-2.508a.8.8 0 00-.467-1.388l-3.58-.32-1.366-3.39a.8.8 0 00-1.484 0l-1.365 3.39-3.58.32a.8.8 0 00-.468 1.388l2.75 2.508-.813 3.668a.8.8 0 001.21.848l3.008-1.91z" id="star"/></g></g></g></g></svg>